HIERARCHY
ROOT Hips
{
 OFFSET 0.000000 0.000000 0.000000
 CHANNELS 6 Xposition Yposition Zposition Yrotation Xrotation Zrotation
 JOINT Chest
 {
  OFFSET 0.000000 9.585900 0.002600
  CHANNELS 3 Yrotation Xrotation Zrotation
  JOINT Chest2
  {
   OFFSET 0.000000 9.601200 -0.005300
   CHANNELS 3 Yrotation Xrotation Zrotation
   JOINT Chest3
   {
    OFFSET 0.000000 9.561800 0.000000
    CHANNELS 3 Yrotation Xrotation Zrotation
    JOINT Chest4
    {
     OFFSET 0.000000 9.552100 0.000000
     CHANNELS 3 Yrotation Xrotation Zrotation
     JOINT Neck
     {
      OFFSET 0.000000 14.453000 0.000000
      CHANNELS 3 Yrotation Xrotation Zrotation
      JOINT Head
      {
       OFFSET 0.000000 8.936500 -0.011300
       CHANNELS 3 Yrotation Xrotation Zrotation
       End Site
       {
        OFFSET 0.000000 17.073600 -0.006000
       }
      }
     }
     JOINT RightCollar
     {
      OFFSET -2.921100 9.558500 0.000000
      CHANNELS 3 Yrotation Xrotation Zrotation
      JOINT RightShoulder
      {
       OFFSET -13.519700 0.000000 0.000000
       CHANNELS 3 Yrotation Xrotation Zrotation
       JOINT RightElbow
       {
        OFFSET 0.000000 -29.696600 0.000000
        CHANNELS 3 Yrotation Xrotation Zrotation
        JOINT RightWrist
        {
         OFFSET 0.000000 -24.004700 0.000000
         CHANNELS 3 Yrotation Xrotation Zrotation
         End Site
         {
          OFFSET 0.000000 -17.728500 0.000000
         }
        }
       }
      }
     }
     JOINT LeftCollar
     {
      OFFSET 2.921100 9.558500 0.000000
      CHANNELS 3 Yrotation Xrotation Zrotation
      JOINT LeftShoulder
      {
       OFFSET 13.519700 0.000000 0.000000
       CHANNELS 3 Yrotation Xrotation Zrotation
       JOINT LeftElbow
       {
        OFFSET 0.000000 -29.696600 0.000000
        CHANNELS 3 Yrotation Xrotation Zrotation
        JOINT LeftWrist
        {
         OFFSET 0.000000 -24.004700 0.000000
         CHANNELS 3 Yrotation Xrotation Zrotation
         End Site
         {
          OFFSET 0.000000 -17.728500 0.000000
         }
        }
       }
      }
     }
    }
   }
  }
 }
 JOINT RightHip
 {
  OFFSET -7.771700 -0.012900 -0.001300
  CHANNELS 3 Yrotation Xrotation Zrotation
  JOINT RightKnee
  {
   OFFSET 0.000000 -40.869800 0.001200
   CHANNELS 3 Yrotation Xrotation Zrotation
   JOINT RightAnkle
   {
    OFFSET 0.000000 -39.717900 0.002100
    CHANNELS 3 Yrotation Xrotation Zrotation
    JOINT RightToe
    {
     OFFSET 0.000000 -4.965400 11.033500
     CHANNELS 3 Yrotation Xrotation Zrotation
     End Site
     {
      OFFSET 0.000000 -1.423100 5.872300
     }
    }
   }
  }
 }
 JOINT LeftHip
 {
  OFFSET 7.771700 -0.012900 -0.001300
  CHANNELS 3 Yrotation Xrotation Zrotation
  JOINT LeftKnee
  {
   OFFSET 0.000000 -40.869800 0.001200
   CHANNELS 3 Yrotation Xrotation Zrotation
   JOINT LeftAnkle
   {
    OFFSET 0.000000 -39.717900 0.002100
    CHANNELS 3 Yrotation Xrotation Zrotation
    JOINT LeftToe
    {
     OFFSET 0.000000 -4.965400 11.033500
     CHANNELS 3 Yrotation Xrotation Zrotation
     End Site
     {
      OFFSET 0.000000 -1.423100 5.872300
     }
    }
   }
  }
 }
}
MOTION
Frames: 6
Frame Time: 0.008333
-18.151336 57.756794 27.298140 167.461141 -34.339101 -0.051131 8.772654 19.453222 4.658167 1.076052 2.683372 0.312238 1.792097 4.365297 0.530018 7.230675 16.839940 2.908407 6.731610 12.373168 -0.595769 12.981448 -12.429895 -3.902999 3.085539 0.194641 4.015646 20.339902 -30.249569 -16.230280 43.362307 -32.699765 -17.010710 7.254720 -4.369351 -43.035778 -4.177034 3.412640 0.636424 30.164669 -10.924278 2.408972 162.869236 -37.812942 -168.069104 -13.619470 -20.161168 41.651665 14.668188 -39.469927 1.386434 -3.077629 72.673485 0.153151 -0.438998 4.583862 1.900995 -0.038018 0.140919 -0.009126 -3.746427 -40.135646 1.902076 32.449430 74.158203 28.981603 -23.456405 -1.051893 0.001980 -0.200888 -1.197393 -0.068843
-18.127309 57.753111 27.307464 167.455341 -34.329385 -0.075803 8.773450 19.442702 4.682793 1.064722 2.684607 0.312816 1.784449 4.364076 0.532291 7.240508 16.839577 2.904738 6.706973 12.383588 -0.611870 12.950799 -12.404508 -3.948162 3.091199 0.212556 4.013188 20.313071 -30.192368 -16.189385 43.564768 -32.732537 -17.222487 7.244031 -4.466357 -43.237042 -4.156806 3.416567 0.636612 30.118640 -10.877013 2.373729 162.263532 -37.922613 -167.699557 -13.580459 -20.162602 41.688164 14.612896 -39.486496 1.454173 -3.092475 72.658852 0.125909 -0.436692 4.595979 1.882753 -0.043028 0.143842 -0.011805 -3.869915 -40.150116 2.037797 32.445953 74.170776 28.910461 -23.490762 -0.994142 -0.029990 -0.214923 -1.214311 -0.059896
-18.104282 57.749558 27.316849 167.454662 -34.319534 -0.091414 8.766860 19.434001 4.694984 1.055938 2.685967 0.312120 1.776948 4.361920 0.533852 7.231086 16.838343 2.903359 6.647326 12.399560 -0.640138 12.969759 -12.397362 -3.976571 3.101406 0.250392 4.013979 20.298543 -30.163360 -16.164291 43.768405 -32.749422 -17.417104 7.251721 -4.590639 -43.446470 -4.124140 3.421136 0.631619 30.096290 -10.852854 2.350302 161.564550 -38.055229 -167.257416 -13.542004 -20.166566 41.729412 14.579548 -39.501325 1.494782 -3.124433 72.647417 0.096218 -0.431923 4.605493 1.863429 -0.047758 0.145495 -0.013884 -3.971619 -40.165244 2.138436 32.429866 74.177246 28.847863 -23.522053 -0.933275 -0.063361 -0.146274 -1.230794 -0.057946
-18.080793 57.745445 27.327722 167.452785 -34.301840 -0.107454 8.758572 19.419023 4.705462 1.046311 2.687921 0.309390 1.752482 4.363414 0.533097 7.209784 16.839657 2.895843 6.657582 12.403450 -0.661668 12.937836 -12.390324 -3.992470 3.136998 0.284328 4.005642 20.268085 -30.146140 -16.124410 44.008273 -32.750330 -17.616618 7.276818 -4.733741 -43.671505 -4.075030 3.428001 0.641727 30.044192 -10.802261 2.285294 160.910229 -38.179892 -166.822952 -13.506385 -20.176459 41.776771 14.543728 -39.519778 1.530866 -3.173516 72.631118 0.058463 -0.423640 4.599519 1.839336 -0.045060 0.161899 -0.020570 -4.076952 -40.187592 2.241026 32.389222 74.189081 28.758641 -23.529674 -0.884798 -0.088761 -0.176242 -1.186157 -0.061050
-18.057200 57.741406 27.339108 167.445067 -34.282664 -0.121233 8.718042 19.418689 4.695711 1.069282 2.680796 0.310357 1.750660 4.363644 0.531700 7.202699 16.842127 2.889853 6.634515 12.404015 -0.670696 12.897625 -12.390512 -4.000158 3.126137 0.336758 4.005098 20.242983 -30.162567 -16.084285 44.285988 -32.732704 -17.820541 7.316427 -4.881644 -43.903192 -4.050612 3.424264 0.647410 29.986725 -10.761862 2.236453 160.252948 -38.317257 -166.366833 -13.475108 -20.194045 41.834189 14.474102 -39.539833 1.574136 -3.150836 72.614294 0.086106 -0.410752 4.601518 1.792789 -0.041909 0.170355 -0.023329 -4.157733 -40.211240 2.325325 32.314442 74.201209 28.659551 -23.524857 -0.842869 -0.119274 -0.170893 -1.188601 -0.059380
-18.036040 57.738437 27.348938 167.433730 -34.272569 -0.120368 8.708847 19.419138 4.686180 1.063310 2.686039 0.307303 1.749289 4.365398 0.529710 7.204739 16.840493 2.885523 6.596620 12.409209 -0.677978 12.845822 -12.395648 -4.001075 3.125403 0.353402 4.002905 20.179214 -30.158548 -16.026222 44.585732 -32.700572 -18.022305 7.359360 -5.015692 -44.119848 -4.030208 3.414251 0.653522 29.939824 -10.732160 2.194881 159.595851 -38.468199 -165.894268 -13.443091 -20.213581 41.898690 14.409846 -39.547468 1.615165 -3.096678 72.600499 0.117473 -0.371984 4.595444 1.769995 -0.041388 0.176429 -0.026015 -4.257292 -40.233318 2.407671 32.300670 74.216068 28.596001 -23.521122 -0.768569 -0.125013 -0.156120 -1.246603 -0.081054
